<?xml version="1.0" encoding="utf-8"?>
<!-- Generator: Adobe Illustrator 21.0.0, SVG Export Plug-In . SVG Version: 6.00 Build 0)  -->
<svg version="1.1" xmlns="http://www.w3.org/2000/svg" xmlns:xlink="http://www.w3.org/1999/xlink" x="0px" y="0px"
	 viewBox="0 0 1400 980" style="enable-background:new 0 0 1400 980;" xml:space="preserve">
<style type="text/css">
	.st0{fill:#C49A57;}
	.st1{opacity:0.2;fill:#26382D;}
	.st2{fill:#EDA74A;}
	.st3{fill:#D69343;}
	.st4{fill:#F2B770;}
	.st5{fill:#54432E;}
	.st6{opacity:0.3;fill:#F1F2F2;}
	.st7{fill:#F5D494;}
	.st8{fill:#F7DBAA;}
	.st9{fill:#DBB675;}
	.st10{fill:#F18335;}
</style>
<g id="Background">
	<rect class="st0" width="1400" height="980"/>
</g>
<g id="Object">
	<ellipse class="st1" cx="732" cy="572" rx="478" ry="97"/>
	<g>
		<path class="st2" d="M829.8,559.6l8.1,16h325.7c0,0,0-50.5-18.5-60.6c-18.5-10.1-65.3,2.1-82.3,7.4c-17,5.3-121.3-6.5-121.3-6.5
			L829.8,559.6z"/>
		<path class="st3" d="M1162.5,557.2c-69.3,0.8-260.7,2.8-264.4-0.3c-3.3-2.9,25-27.5,39.1-39.4l-107.4,42.1l8.1,16h325.7
			C1163.7,575.6,1163.7,567.6,1162.5,557.2z"/>
		<path class="st4" d="M1145.2,515c-18.5-10.1-65.3,2.1-82.3,7.4c-11.1,3.5-59.8-0.4-92-3.5c-1.7,0.5-2.6,0.7-2.6,0.7l-7.6,5.1
			c0,0,66.9,10,78.9,12.6c12,2.6,39.8,13.5,52.4,9.3c12.6-4.2,38.5-22.4,53-14.2c7.6,4.3,12.4,8,15.2,10.6
			C1157.6,531,1153.1,519.3,1145.2,515z"/>
		<path class="st2" d="M764.7,398.7c-80.8,2.5-149-67-263.9-38.2c-101.8,25.4-137,124.7-191.9,124.1s-72.6-20.2-72.6-20.2
			s38.5,62.5,51.1,66.9c12.6,4.4,36.6-6.3,36.6-6.3l-17.7,13.3c0,0,46.1,17,72.6,11.4c0,0-6.3,8-14.5,9.7c0,0,8.8,26.9,64.4,11.8
			s105.4-18.3,105.4-18.3l212.1,6.5C746.3,559.2,842.1,396.3,764.7,398.7z"/>
		<path class="st5" d="M774.3,399.4c-2.9-0.6-6.1-0.8-9.6-0.7c-72.5,2.3-134.9-53.5-229.9-44.1c-20.2,7-41.7,17.8-9.9,36.6
			c44.8,26.5,40.4,11.4,63.8,25.9c23.4,14.5,29,45.4,51.1,44.8c22.1-0.6,27.1-19.1,49.1-13.3c22.1,5.8,80.3-34.1,80.3-34.1
			S778,407.9,774.3,399.4z"/>
		<path class="st6" d="M500.8,360.4c-101.8,25.4-137,124.7-191.9,124.1c-35.6-0.4-55.6-8.8-65.2-14.6c30.3,22.4,51.4,31.4,92.8,25.2
			c44.6-6.7,109.4-93.4,154-112c44.6-18.5,101,4.2,146.6,15.7c45.6,11.4,95,31.5,95,31.5l17.9-31.9
			C675.4,393.1,608.7,333.5,500.8,360.4z"/>
		<path class="st2" d="M736.3,377.9L712.9,333c0,0,58.1-1.9,102.3,22.4c36.7,20.2,129,79.7,143.8,135.5c3,11.4,5.9,42.8,2,53.8
			c-7.2,20.3-15,29.4-23.6,34.5c-53.8,32-185.4-33.5-185.4-33.5L736.3,377.9z"/>
		<path class="st2" d="M750,610.4l8.1,16h325.7c0,0,0-50.5-18.5-60.6c-18.5-10.1-65.3,2.1-82.3,7.4s-121.3-6.5-121.3-6.5L750,610.4z
			"/>
		<path class="st3" d="M1082.7,607.9c-69.3,0.8-260.7,2.8-264.4-0.3c-3.3-2.9,25-27.5,39.1-39.4L750,610.4l8.1,16h325.7
			C1083.8,626.3,1083.8,618.3,1082.7,607.9z"/>
		<path class="st7" d="M649.8,445.4l6.8-16.7c0,0-12.5-13-13.8-16.8s-10.7-29.7-27.1-37.2s-16.4-7.6-16.4-7.6v-24
			c0,0-49.9,14.5-84,42.3c-34.1,27.8-46.1,6.6-89,53c-41.2,44.6-36.2,105.1-18.9,133.2c0,0,0.6,52.4,78.9,65s104.8-8.2,137.6,0
			c32.8,8.2,67.5,24,125.6-13.9c58.1-37.9,122.5-63.1,167.3-56.2s88.4-18.9,53.7-45.4c-34.7-26.5-117.4-23.4-174.2,4.4
			c-56.8,27.8-111.7,66.9-133.8,54.3c0,0,14.3-46.6-1.3-73.2c-8.8-15.1-29.5-17.8-29.5-17.8s-0.8-21.3-12.2-27
			C619.5,461.8,635.2,465.6,649.8,445.4z"/>
		<path class="st8" d="M515.3,385.4c-32,26.1-44.5,9-81.5,45.3c-32.1,41.2,1.1,64.1,22.2,77.8c22.4,14.6,88.4-23.4,88.4-23.4
			c-8.2,6.3,1.9,54.6,1.9,54.6s12.6-31.6,33.5-36.9c16.5-4.3,69.7,26.3,88.6,33.7c-0.3-10.6-2.2-21.3-7.2-29.9
			c-3.8-6.5-9.7-10.7-15.3-13.3c-4.3-1.5-13.3-8.3-18-10.8c-58.9-30.8-71.8,2.3-79.1-8.5c-7.3-10.9-28.4-26.7-28.4-26.7s0,0-9.5-3.8
			c-9.5-3.8-12.6-11.4-12.6-11.4s10.4-12.9,22.1-6.9c11.7,6,33.8,25.5,38.5,19.5c4.7-6-1.3-18.9-11-26.2c-9.8-7.3-35.3-6.9-36.3-6.6
			c-0.9,0.3,0-9.2,12.6-9.8c12.6-0.6,28.7,5.5,28.7,5.5l4.7-17.8c0,0,7.6-0.6,7.9-5c0.3-4.4,2.5-15.1,7.3-19.9
			c4.7-4.7,26.5-21.8,26.5-21.8l-4.5,1.4C581.7,348.8,543.2,362.7,515.3,385.4z"/>
		<path class="st9" d="M929,552.3c-26.2-3.7-60.4-12.2-88.8-6.7c12.7-11.6,21.4-33.1,24.1-40.2c-2.4,0.3-4.7,0.7-7.1,1.1
			l-132.8,57.6l-15.4-2.3l-49,19.5c0,0,8.6,7.9,18.7,9.2c8,1,38.6-15,51.3-21.8c7.8-0.5,16.9-0.8,25.7-0.5c9.7,0.4,23.3-1,37-3.8
			c-14.9,8.4-29.6,19.6-46.3,36.2c-29.9,29.9-64.4,23.1-96.4,18.1c-32-5-57.7-12.2-57.7-12.2s-12.6-13-23.6-14.7
			c-10.9-1.7-62.7,33.2-103.1,16.8S421.1,588,421.1,588h19.8c0,0-30.7-35.2-45.4-82.4c-3.1,26.4,2.6,50.9,11.9,66
			c0,0,0.6,52.4,78.9,65s104.8-8.2,137.6,0c32.8,8.2,67.5,24,125.6-13.9c58.1-37.9,122.5-63.1,167.3-56.2c31.6,4.9,62.6-6.6,65.9-23
			C979.7,545.1,956.5,556.2,929,552.3z"/>
		<path class="st2" d="M856.8,469.1c-18.9-18.9-96.6-104.2-96.6-104.2s-60,30.3-68.2,45.4c-8.2,15.1-19.6,49.9-28.4,56.8
			c-6.9,5.4-38.6,17.1-56.9,21.9c-6,1.6-9.2,8-6.9,13.7c9.2,22.9,32,72.4,60,78.7c36.6,8.2,63.6-16.8,77.7-24.5s75-8.3,98.4-22.2
			S875.7,488,856.8,469.1z"/>
		<path class="st3" d="M831.7,517.5c-26,15.5-88.5,29.1-88.5,29.1l6.8-12.9c0,0-15.5,16.6-28.2,26.6c-10.5,8.2-36.5,19.1-56.6,22.1
			c33.9,4.8,59-18.1,72.5-25.4c14.1-7.7,75-8.3,98.4-22.2s39.8-46.7,20.8-65.6C856.8,469.1,857.7,502.1,831.7,517.5z"/>
		<path class="st4" d="M737.9,376.9c-18,10.2-41,24.5-45.9,33.4c-8.2,15.1-19.6,49.9-28.4,56.8c-6.9,5.4-38.6,17.1-56.9,21.9
			c-6,1.6-9.2,8-6.9,13.7c4.1,10.4,11.1,26.1,20,40.9c7.3,8.9,15,17,22.3,22.3c24.9,18.3,65.6-2.2,77-20.5c11.4-18.3,6-36.9,6-36.9
			s-14.5-10-26.5-15.5c-11-5,10.4-42.4,18.9-43.9c10.7-1.9,23,5.7,35.3-1.6c12.3-7.3,35-34.7,34.1-40.4
			C786.1,401.5,750.4,376.6,737.9,376.9z"/>
		<path class="st4" d="M946.8,464.5c-30.2-47.1-100.7-92.1-131.6-109.1C771,331.1,712.9,333,712.9,333s75.7,22.1,114.9,43.9
			C866.9,398.7,914.9,437,946.8,464.5z"/>
		<path class="st4" d="M1065.3,565.7c-18.5-10.1-65.3,2.1-82.3,7.4c-11.1,3.5-59.8-0.4-92-3.5c-1.7,0.5-2.6,0.7-2.6,0.7l-7.6,5.1
			c0,0,66.9,10,78.9,12.6c12,2.6,39.8,13.5,52.4,9.3c12.6-4.2,38.5-22.4,53-14.2c7.6,4.3,12.4,8,15.2,10.6
			C1077.7,581.7,1073.2,570,1065.3,565.7z"/>
		<path class="st9" d="M620.5,462c2.5,0.3,9.5,0.4,17.5-4.9c-4.8-0.3-14.8-1.5-21.5-5.5c-9.3-5.5-31.1-17-31.1-17l34.1,27.4
			L620.5,462z"/>
		<polygon class="st10" points="652.4,424.3 653.8,435.5 656.6,428.7 		"/>
		<path class="st5" d="M599.8,502.7c2.2,5.4,5.1,12.3,8.7,19.7c0-5,0.4-15.5,4.2-18.3c5-3.8,8.6-9,7.1-13.3c-0.7-1.8-2-3.4-3.8-4.5
			c-3.3,1-6.5,1.9-9.3,2.7C600.8,490.6,597.5,497,599.8,502.7z"/>
		<path class="st5" d="M617.7,406.7c0,0,7.6,5.8,12.2,6.2s8-1.3,7.4,0c-0.6,1.3-6.1,2.8-9.7,1.9C623.9,413.8,613.6,408,617.7,406.7z
			"/>
		<path class="st5" d="M712.9,459c0,0,8.4,4.3,19.2,3.1c10.8-1.2,16.5-2,4.2,2.5c-12.3,4.5-26.9-0.4-28.1-2.8
			C707,459.4,712.9,459,712.9,459z"/>
	</g>
</g>
<g id="text">
</g>
</svg>
