<?xml version="1.0" standalone="no"?>
<!DOCTYPE svg PUBLIC "-//W3C//DTD SVG 20010904//EN"
 "http://www.w3.org/TR/2001/REC-SVG-20010904/DTD/svg10.dtd">
<svg version="1.0" xmlns="http://www.w3.org/2000/svg"
 width="700.000000pt" height="700.000000pt" viewBox="0 0 700.000000 700.000000"
 preserveAspectRatio="xMidYMid meet">
<metadata>
Created by potrace 1.14, written by Peter Selinger 2001-2017
</metadata>
<g transform="translate(0.000000,700.000000) scale(0.100000,-0.100000)"
fill="#000000" stroke="none">
<path d="M3250 6223 c0 -6 -29 -40 -64 -75 -75 -76 -92 -119 -81 -213 3 -32 9
-63 11 -67 9 -14 74 44 101 90 22 38 27 61 33 156 4 61 5 113 4 115 -2 2 -4 0
-4 -6z"/>
<path d="M4627 5964 c-3 -3 -41 -13 -83 -21 -92 -17 -122 -31 -158 -74 -29
-34 -66 -101 -66 -119 0 -14 48 -12 107 5 54 16 101 60 175 163 33 47 43 63
25 46z"/>
<path d="M5296 5591 c-34 -76 -33 -115 7 -232 32 -95 33 -96 44 -65 6 17 23
60 38 95 19 46 25 74 22 99 -7 42 -63 162 -75 162 -5 0 -21 -26 -36 -59z"/>
<path d="M1978 5509 c-62 -62 -74 -96 -80 -239 l-4 -75 67 70 c37 39 72 83 78
98 12 31 13 138 2 177 -7 25 -8 24 -63 -31z"/>
<path d="M3203 5137 c-82 -82 -93 -105 -92 -197 1 -112 6 -118 56 -75 62 52
81 102 91 228 4 59 7 107 7 106 0 0 -28 -28 -62 -62z"/>
<path d="M5333 4937 c3 -41 12 -88 21 -104 18 -37 74 -86 124 -112 21 -11 50
-37 64 -58 73 -112 74 -110 -17 -42 -98 74 -170 93 -259 68 l-38 -11 33 -35
c63 -66 116 -93 184 -93 33 0 75 4 92 9 18 5 42 7 53 4 21 -5 88 -101 155
-218 l28 -50 -69 74 c-38 41 -86 82 -109 92 -40 19 -145 26 -145 11 0 -15 57
-97 86 -124 38 -35 66 -45 153 -54 43 -4 80 -13 91 -23 11 -9 40 -60 65 -114
l45 -98 -83 -53 c-102 -67 -303 -168 -466 -235 -68 -28 -127 -51 -131 -51 -4
0 -10 57 -12 128 -4 106 -9 138 -31 194 -74 192 -261 372 -481 465 -158 67
-344 96 -471 74 -166 -29 -296 -102 -567 -317 -101 -80 -208 -157 -238 -172
-84 -41 -148 -38 -279 16 -135 56 -206 72 -319 72 -250 0 -444 -97 -525 -264
-59 -121 -72 -294 -29 -384 l20 -41 -27 4 c-316 53 -635 121 -681 145 -11 6
-45 53 -76 105 l-57 96 37 77 c46 100 48 150 5 238 -16 35 -34 64 -39 64 -4 0
-20 -23 -34 -52 -34 -68 -34 -139 -1 -232 13 -39 23 -71 21 -73 -9 -9 -166
297 -166 323 0 7 22 38 49 69 58 67 81 111 81 157 0 47 -21 148 -31 148 -15 0
-88 -93 -100 -128 -8 -23 -10 -71 -6 -135 3 -55 1 -95 -3 -91 -5 5 -25 47 -46
94 -33 73 -39 99 -44 185 -3 55 -11 110 -18 121 -13 25 -119 124 -132 124 -17
0 -23 -72 -11 -123 12 -54 73 -143 121 -177 20 -14 40 -51 70 -127 24 -60 63
-148 87 -197 24 -48 40 -86 35 -85 -6 2 -31 32 -56 66 -25 34 -60 70 -78 79
-37 20 -198 33 -198 17 0 -17 57 -90 88 -112 29 -21 99 -40 207 -58 l50 -8 62
-109 c35 -60 61 -111 58 -114 -3 -3 -33 22 -68 56 -77 73 -115 86 -212 73 -37
-6 -70 -12 -73 -16 -3 -3 17 -27 45 -53 59 -58 104 -72 226 -72 52 0 89 -5 98
-12 19 -17 72 -99 66 -104 -7 -7 -185 51 -329 106 -266 103 -242 96 -272 77
-38 -26 -48 -61 -44 -154 6 -113 32 -146 144 -186 233 -84 603 -184 935 -251
l207 -42 -122 -88 c-66 -48 -148 -109 -182 -135 -34 -27 -76 -50 -95 -54 -62
-10 -145 -47 -178 -79 -30 -30 -71 -96 -71 -116 0 -14 130 6 169 26 33 17 83
78 122 150 17 30 176 158 185 149 3 -3 -11 -27 -30 -54 -73 -102 -89 -171 -65
-269 l12 -45 29 28 c16 15 43 50 60 77 36 56 40 101 18 204 -13 62 -13 64 11
87 13 13 56 44 94 70 57 38 75 45 100 40 109 -22 637 -85 714 -85 14 0 16 -27
17 -218 1 -243 15 -366 47 -426 l22 -41 3 38 c4 48 32 52 33 5 0 -26 2 -29 8
-13 5 13 19 20 44 22 37 2 37 2 39 -40 l1 -42 6 50 c5 38 10 50 22 49 14 -1
17 20 22 160 5 121 13 194 35 296 l28 135 102 3 101 3 -6 32 c-10 54 -44 141
-64 163 -11 11 -19 25 -19 31 0 6 -11 27 -25 48 -26 37 -29 50 -9 37 28 -19
124 -146 150 -198 l29 -59 0 -360 0 -360 25 -59 c30 -70 61 -96 123 -103 116
-13 133 15 130 227 -2 126 2 181 22 300 13 80 27 184 31 231 l7 86 76 7 c42 4
99 9 128 13 l51 6 20 -65 c29 -94 46 -220 39 -299 -5 -56 -3 -69 9 -69 8 0 14
-9 14 -21 0 -11 5 -17 10 -14 6 3 16 3 23 -2 6 -4 19 -8 27 -8 11 0 14 -10 13
-35 l-2 -35 13 35 c7 19 16 34 20 33 29 -7 31 -10 18 -38 -13 -28 -13 -28 10
-13 72 47 155 242 198 463 12 61 26 117 30 126 9 17 -7 84 -30 131 -11 22 -10
22 10 -2 36 -40 71 -118 77 -169 3 -26 -4 -167 -17 -312 -21 -260 -21 -265 -3
-324 l19 -60 51 0 c64 1 106 29 170 111 97 129 240 468 289 691 l18 81 145 52
c289 103 501 205 697 335 151 101 151 99 93 269 -51 151 -59 158 -132 107
l-44 -30 -27 56 -27 56 32 51 c57 89 89 158 89 192 0 47 -20 134 -31 134 -16
0 -99 -114 -111 -153 -9 -29 -8 -53 1 -100 6 -34 14 -75 17 -92 3 -18 -23 20
-65 94 -39 68 -71 126 -71 128 0 2 18 45 40 97 47 111 52 170 18 248 l-21 50
-19 -23 c-11 -13 -33 -51 -49 -84 -35 -70 -33 -111 8 -209 13 -32 22 -60 20
-63 -3 -2 -34 38 -69 89 -35 51 -74 107 -86 124 -13 17 -30 64 -38 104 -25
121 -64 179 -148 222 l-39 20 6 -75z m-2307 -925 c76 -39 174 -173 174 -239 0
-21 -2 -20 -57 13 -68 41 -169 74 -224 74 -44 0 -79 -30 -79 -66 0 -42 42 -69
160 -104 41 -12 96 -33 122 -46 26 -13 54 -24 62 -24 37 0 -51 -159 -117 -211
-53 -42 -134 -79 -206 -95 -235 -49 -445 47 -527 241 l-14 35 47 24 c27 13 82
34 123 46 125 37 163 71 138 125 -6 13 -24 29 -40 36 -36 15 -135 -7 -222 -50
l-59 -29 6 49 c17 143 111 238 235 239 64 0 108 -17 151 -59 35 -34 55 -32 84
10 8 11 32 29 53 40 48 25 131 21 190 -9z"/>
<path d="M2652 3631 c-27 -22 -58 -50 -69 -64 -14 -18 -23 -23 -35 -16 -24 13
-32 -7 -11 -23 10 -7 27 -31 38 -52 42 -82 149 -116 254 -81 58 19 111 66 111
98 0 11 10 31 22 44 23 25 18 44 -7 23 -13 -10 -22 -6 -59 28 -99 92 -167 104
-244 43z m116 20 c19 -12 -32 -24 -61 -15 -22 7 -22 7 -2 15 27 10 47 10 63 0z"/>
<path d="M5673 2997 c-82 -82 -93 -105 -92 -197 1 -112 6 -118 56 -75 62 53
83 104 91 229 4 58 7 106 7 105 0 0 -28 -28 -62 -62z"/>
<path d="M4187 2631 c-4 -17 -3 -21 5 -13 5 5 8 16 6 23 -3 8 -7 3 -11 -10z"/>
<path d="M4226 2604 c-4 -14 -5 -28 -3 -31 3 -2 8 8 11 23 4 14 5 28 3 31 -3
2 -8 -8 -11 -23z"/>
<path d="M3112 2420 c0 -19 2 -27 5 -17 2 9 2 25 0 35 -3 9 -5 1 -5 -18z"/>
<path d="M3071 2414 c0 -11 3 -14 6 -6 3 7 2 16 -1 19 -3 4 -6 -2 -5 -13z"/>
<path d="M2405 2025 c-22 -7 -71 -20 -110 -29 -103 -25 -131 -57 -154 -180
l-9 -49 55 7 c112 13 166 52 207 149 15 34 33 74 41 90 8 15 13 26 12 26 -1
-1 -20 -7 -42 -14z"/>
<path d="M4946 1888 c-65 -43 -94 -90 -112 -184 -8 -43 -19 -92 -24 -109 -8
-24 -7 -27 3 -15 7 9 40 35 75 59 86 61 105 94 110 198 3 46 2 83 0 83 -3 0
-26 -14 -52 -32z"/>
<path d="M3532 1710 c-33 -127 -35 -156 -14 -202 23 -51 78 -128 92 -128 15 0
43 109 37 149 -5 37 -17 67 -74 171 l-30 55 -11 -45z"/>
</g>
</svg>
