<?xml version="1.0" encoding="utf-8"?>
<!-- Generator: Adobe Illustrator 26.1.0, SVG Export Plug-In . SVG Version: 6.00 Build 0)  -->
<svg version="1.1" id="Ebene_1" xmlns="http://www.w3.org/2000/svg" xmlns:xlink="http://www.w3.org/1999/xlink" x="0px" y="0px"
	 viewBox="0 0 1400 1400" style="enable-background:new 0 0 1400 1400;" xml:space="preserve">
<style type="text/css">
	.st0{display:none;}
	.st1{display:inline;fill:#EFE5B9;}
	.st2{fill:#AF6A3A;}
	.st3{fill:#CE895B;}
	.st4{fill:#603913;}
	.st5{fill:#4F2C0F;}
	.st6{fill:#58595B;}
	.st7{fill:#BCBEC0;}
	.st8{fill:#C27B49;}
	.st9{fill:#FFFFFF;}
	.st10{fill:#89837A;}
	.st11{fill:#231F20;}
	.st12{fill:#D1D3D4;}
	.st13{fill:#948323;}
	.st14{fill:#726216;}
</style>
<g id="background" class="st0">
	<rect class="st1" width="1400" height="1400"/>
</g>
<g id="object">
	<g>
		<path class="st2" d="M832.1,313.7c0,0,25.5,136.9,64.4,200S973,614.4,973,614.4l-119.5,71.1l-52.3-5.4c0,0-44.3-124.8-43-187.9
			C759.6,429.1,832.1,313.7,832.1,313.7z"/>
		<path class="st3" d="M819.2,383.4c0,0,51.1,174.3,109.5,190.9c4,1.1,7.5,1.4,10.7,1c-12.6-16.1-27.6-36.9-42.8-61.5
			c-25.5-41.4-45.3-114.5-55.8-159.9L819.2,383.4z"/>
		<path class="st2" d="M693.9,537.8c0,0,98,107.4,107.4,142.3c9.4,34.9-91.3,79.2-95.3,79.2s-83.2-65.8-83.2-65.8L693.9,537.8z"/>
		<path class="st4" d="M311.8,735.6c0,0,275.6-160.2,374-268.5s176.5-209.5,223.7-299.8c4.2-8.1,63.5,31.3,63.5,31.3
			s-29.5,102.9-78.7,185.2S689.4,649.6,587.4,721.2S329.7,851,312.7,851.9S259,759.3,311.8,735.6z"/>
		<path class="st5" d="M628.7,666.5c0,0,77.8-80.5,122.9-126.3S896.5,361.8,922,298.7c15.4-38,27.2-81.3,34.3-109.8
			c-5.2-3-11.2-6.3-17-9.4c-16.1,44-53,142.3-73.6,174.3c-26.9,41.7-58.5,7.3-58.5,7.3L776,405.8c0,0-21.7,72.8-45.5,111.7
			s-144,68.4-144,68.4s-47,87.3-83.2,121.2c-29.6,27.6-166.5,83.3-215.8,102.8c2.8,11.5,7.1,22.1,11.6,29.7c25.4-9,61.1-22,82-30.9
			c22.3-9.6,60.6-15.1,85.3-17.8c16.8-8.2,34-17,50.8-26.3L628.7,666.5z"/>
		<path class="st5" d="M313.3,782c0,0,57.7-14.1,103.4-47C416.7,734.9,361,755.9,313.3,782z"/>
		<path class="st5" d="M437.5,721c0,0,57.7-14.1,103.4-47C540.8,674,485.1,694.9,437.5,721z"/>
		<path class="st5" d="M501,662.7c0,0,56.8-17.6,100.3-53.2C601.3,609.5,546.9,633.8,501,662.7z"/>
		<path class="st5" d="M710,500.2c0,0,50.4-31.4,83.6-76.9C793.6,423.3,747.2,460.6,710,500.2z"/>
		<path class="st5" d="M834.8,357c0,0,37.9-45.8,55-99.4C889.7,257.6,857.5,307.7,834.8,357z"/>
		<path class="st5" d="M819.7,418c0,0,37.9-45.8,55-99.4C874.6,318.6,842.4,368.7,819.7,418z"/>
		<path class="st5" d="M729,503c0,0,50.4-31.4,83.6-76.9C812.6,426.1,766.2,463.4,729,503z"/>
		<path class="st5" d="M385.8,727.4c0,0,57.7-14.1,103.4-47C489.2,680.3,433.5,701.3,385.8,727.4z"/>
		<path class="st6" d="M817.3,307.3c0,0,14.4,82.8,29.8,98.5c0,0-24.5-6.4-42.3-50C792.1,324.4,817.3,307.3,817.3,307.3z"/>
		<path class="st7" d="M823,344c0,0,9.8,44,17.1,54.6c0,0-17-18.8-19-36.3C819,344.8,823,344,823,344z"/>
		<path class="st6" d="M804.1,331c0,0,14.4,82.8,29.8,98.5c0,0-24.5-6.4-42.3-50C778.8,348.1,804.1,331,804.1,331z"/>
		<path class="st7" d="M807.1,361.1c0,0,9.8,44,17.1,54.6c0,0-17-18.8-19-36.3C803.2,361.9,807.1,361.1,807.1,361.1z"/>
		<path class="st6" d="M789.4,347.2c0,0,14.4,82.8,29.8,98.5c0,0-24.5-6.4-42.3-50C764.1,364.2,789.4,347.2,789.4,347.2z"/>
		<path class="st7" d="M792.9,380.6c0,0,9.8,44,17.1,54.6c0,0-17-18.8-19-36.3C788.9,381.4,792.9,380.6,792.9,380.6z"/>
		<path class="st6" d="M776.1,345.6c0,0,2.2,84,15.2,101.8c0,0-23.3-9.9-34.6-55.6C748.6,358.7,776.1,345.6,776.1,345.6z"/>
		<path class="st7" d="M772.6,383.4c0,0,5.7,44.7,12,55.9c0,0-15.2-20.3-15.6-37.9C768.6,383.8,772.6,383.4,772.6,383.4z"/>
		<path class="st8" d="M718,429.1v204c0,0,150.3-15.8,187.9-40.3c0,0,9.4-88.6,67.1-116.8s123.9-16.1,157.5,33.5
			c33.6,49.7,16.3,115.4,3.6,156.4c-26,83.5-17.9,109.6-54.6,167.3c-18.5,29.1-134.7,163.5-323.9,170.3S518,919,501.9,889.5
			s-29.5-49.7-49.7-57.7s-56.4,29.5-60.4,16.1s36.2-92.6,106-84.6c0,0,72.3-192.3,107.4-279.2C633.5,414.4,712.3,379.5,718,429.1z"
			/>
		<path class="st3" d="M608,477.9c0.1-0.1,66.4-61.1,84.5-55c18.1,6,12.1,86.1,13.4,134.6c1.3,48.6,1.1,151.6,1.1,151.6
			s6.3-24.7,11-75.9v-204C712.5,381,638.2,412.3,608,477.9z"/>
		<g>
			<path class="st9" d="M1109.8,609.1c17.7-32.5,3.7-81-28.8-89.9c-22.7-6.2-26.4,8.8-35.7,4.6c-7.3-3.3-0.8-15.1-20.4-28
				c-28.2-18.6-59.2-3.5-77,36.3c-16.9,37.8-2.1,86.3,45.1,107.6C1045.3,663.3,1090,645.5,1109.8,609.1z"/>
			<path class="st10" d="M1053.4,556.1c10.1-12.2,25-4.9,47,18.3c24.5,25.9,16.3,43.2,7.1,46.5c-10.8,3.9-16.2-14.7-32.5-27.4
				C1056.6,579.3,1044.4,567,1053.4,556.1z"/>
			<path class="st10" d="M1013.9,546c2.5-15.6-12.9-22-44.8-23.1c-35.6-1.2-43.2,16.4-39.6,25.4c4.2,10.6,21.7,2.4,42.1,6.3
				C994.3,559,1011.7,559.9,1013.9,546z"/>
			<path class="st10" d="M1023.9,571.6c10.5,3.7,27.6,30.6,26.7,43.2c-1,14.7-23.5,24.6-50.1,13s-26.6-38.4-21.8-44.3
				C984.9,575.9,1014.4,568.2,1023.9,571.6z"/>
			<path class="st11" d="M1033,589.8c-2.2,4.9-10.2,6-18,2.5c-7.7-3.5-12.2-10.3-10-15.1s11.4-7.3,19.2-3.8
				C1031.9,576.9,1035.2,585,1033,589.8z"/>
			<path class="st9" d="M1010.2,574.7c0,0,7.5-1.9,13.8,1.5c6.2,3.4,6.8,6.4,6.8,6.4s-4.9-2.5-7.4-1.9s-5.5,0.3-6.2-1.7
				C1016.4,576.9,1010.2,574.7,1010.2,574.7z"/>
			<g>
				<path class="st11" d="M1005.7,611c-20.8-9.4-31-29.4-31.5-30.3c-0.6-1.2-0.1-2.6,1-3.2c1.2-0.6,2.6-0.1,3.2,1
					c0.1,0.2,11.3,22.1,33.3,29.8c22.2,7.8,44.8,2.6,45,2.5c1.3-0.3,2.5,0.5,2.8,1.8s-0.5,2.5-1.7,2.8c-1,0.2-24.1,5.6-47.7-2.7
					C1008.6,612.2,1007.1,611.6,1005.7,611z"/>
			</g>
		</g>
		<path class="st3" d="M732.2,699.1c0,0,27.5-21.4,73.9-11.4c46.3,9.9,110.7,46,124.2,101.3c19.3-38.6,74.2-84.1,86.5-84.1
			c0,0-66.6,59.6-82.1,110.3c0,0,2.7,23.5-3.3,37.5c0,0-16-76.8-52.1-108.6C843.3,712.2,773.4,684.5,732.2,699.1z"/>
		<path class="st2" d="M740.8,768.8c0,0,18.4-1.8,113.2,146.9c25.7,40.3,139.1-21,139.1-21s-74.6,52.4-118.7,56.8
			C846.1,954.3,806.6,851.9,740.8,768.8z"/>
		<path class="st6" d="M719.3,747c-4.8-0.3-16.4,0.1-28.8,6.7C675.6,761.6,671,782,671,782c25.5-28.6,69.8-13.2,69.8-13.2
			C730.1,765.5,721.9,758.1,719.3,747z"/>
		<path class="st6" d="M730.4,705.1c-4.4-1.1-16.2-2.8-29.9,1.9c-16,5.4-23.7,24.8-23.7,24.8c14.3-11.6,31.3-12.5,45.1-10.2
			C724.3,715,727.2,709.6,730.4,705.1z"/>
		<path class="st6" d="M720.4,726.2c0.2-0.6,0.4-1.2,0.6-1.9c-5.5-0.1-16,0.8-27.1,6.7c-14.9,7.9-19.5,28.3-19.5,28.3
			c12.6-14.2,29.9-17.5,44-17.3C718.1,737.3,718.7,732,720.4,726.2z"/>
		<path class="st6" d="M751.6,688.9c-1.5-0.8-17.2-5.9-36.4-1.9c-18.6,3.9-28.3,22.5-28.3,22.5c14.6-8.8,31.2-9.4,45.6-7
			C738.6,695,745.6,690.6,751.6,688.9z"/>
		<path class="st12" d="M723.8,757.1c-1.6-2.3-2.9-4.8-3.8-7.6c-1.6,0.2-3.2,0.4-5,0.6c-24.2,3.4-36.3,16.9-36.3,16.9
			C695.7,758.3,712.6,756.8,723.8,757.1z"/>
		<path class="st12" d="M718.7,726.6c-24.2,3.4-36.3,16.9-36.3,16.9c13.1-6.7,26-9.1,36.4-9.7c0.3-2.3,0.8-4.8,1.6-7.3
			C719.8,726.5,719.2,726.5,718.7,726.6z"/>
		<path class="st12" d="M725,714.3c1.3-2.6,2.7-5.1,4.1-7.3c-1.9-0.1-3.9-0.1-6.1,0c-24.5,0.5-38.1,12.3-38.1,12.3
			C700,713.9,714.2,713.4,725,714.3z"/>
		<path class="st12" d="M738.5,696.3c3.2-2.7,6.4-4.7,9.5-6.1c-2.8-0.4-5.9-0.8-9.4-1.1c-24.4-2-39.1,8.4-39.1,8.4
			C714.3,693.7,728,694.4,738.5,696.3z"/>
		<path class="st8" d="M752.9,383.9c0,0-6.7-51.7,12.8-80.5c19.5-28.9,52.2-21.4,54.6-10.4c2.4,11,12.5,65.4-13.7,101
			C790.3,416.2,761.1,411,752.9,383.9z"/>
		<path class="st2" d="M664.9,921.8c0,0,31.9,11.9,63.8-8.7C728.7,913.1,688.4,924.5,664.9,921.8z"/>
		<path class="st2" d="M650.7,956.9c0,0,29.3,17.3,64.3,2.6C715,959.5,673.4,963.7,650.7,956.9z"/>
		<path class="st2" d="M606.7,900.7c0,0,29.3,17.3,64.3,2.6C671,903.2,629.4,907.4,606.7,900.7z"/>
		<path class="st2" d="M601.6,924.9c0,0,26.6,21.2,63.3,11.6C664.9,936.6,623.1,934.8,601.6,924.9z"/>
		<path class="st2" d="M521.6,871.9c0,0,18.6,28.5,56.4,30.9C578,902.7,538.9,888,521.6,871.9z"/>
		<path class="st2" d="M740,921.9c0,0,33.3,6.8,61.7-18.4C801.6,903.5,763.6,920.9,740,921.9z"/>
		<path class="st2" d="M717.2,896.1c0,0,33.3,6.8,61.7-18.4C778.9,877.7,740.8,895.1,717.2,896.1z"/>
		<path class="st2" d="M781.8,929.5c0,0,33.3,6.8,61.7-18.4C843.5,911.1,805.4,928.5,781.8,929.5z"/>
		<path class="st2" d="M776.2,955.2c0,0,33.3,6.8,61.7-18.4C837.8,936.8,799.8,954.2,776.2,955.2z"/>
		<path class="st2" d="M947.1,894.7c0,0,34,1.3,57.8-28.2C1005,866.5,970.3,889.9,947.1,894.7z"/>
		<path class="st2" d="M1019,849.9c0,0,33.3-6.9,49.4-41.3C1068.4,808.6,1040.3,839.6,1019,849.9z"/>
		<path class="st2" d="M905.7,898.3c0,0,34,1.3,57.8-28.2C963.5,870,928.8,893.5,905.7,898.3z"/>
		<path class="st2" d="M978.5,862.7c0,0,33.6-5.3,51.3-38.8C1029.8,823.9,1000.3,853.5,978.5,862.7z"/>
		<path class="st2" d="M852,863.4c0,0,12.6,31.6,49.2,41.5C901.2,904.9,865.8,882.7,852,863.4z"/>
		<path class="st2" d="M796.5,806c0,0,9.4,32.7,44.9,46.1C841.4,852.1,808.3,826.5,796.5,806z"/>
		<path class="st2" d="M876.6,919.2c0,0,33.2,7.4,62-17.3C938.6,901.9,900.3,918.7,876.6,919.2z"/>
		<path class="st2" d="M835.5,863.7c0,0,8.5,32.9,43.7,47.3C879.1,910.9,846.7,884.5,835.5,863.7z"/>
		<path class="st2" d="M708.9,944.2c0,0,31.8,12.1,63.8-8.2C772.7,936,732.4,947.1,708.9,944.2z"/>
		<path class="st2" d="M862.1,941.9c0,0-34.9,31.9-121.3,32.8c-107.6,1.1-173.2-41.2-191-59.1c0,0,36.1,66.5,153.9,73.4
			c117.8,6.8,204.4-34,256.5-73.4C960.2,915.7,893.4,952,862.1,941.9z"/>
		<path class="st3" d="M820.3,293c-2.4-11-35.1-18.5-54.6,10.4c-6.6,9.8-10.2,22.3-12.1,34.5c0.1-0.2,16.5-35.2,34.4-43.2
			c17.9-8.1,27-2,28.7,1.7c0.9,2,4.4,14.4,7.3,25.1C823.3,307.9,821.2,297.3,820.3,293z"/>
		<path class="st4" d="M327.4,734.9c0,0,24.2-78.4,37.6-177.4c13.4-99.1,8.1-238.9,8.1-238.9s26.8-58.5,43.6,28.6
			c16.8,87.1-12.4,280.8-7.4,303.2s12.6,23.6,12.6,23.6L327.4,734.9z"/>
		<path class="st5" d="M396.4,595.5c0,0-10.2,28.1-4.1,56.9C392.3,652.4,397.4,623,396.4,595.5z"/>
		<path class="st5" d="M404,517.2c0,0-10.2,28.1-4.1,56.9C399.9,574.1,405,544.7,404,517.2z"/>
		<path class="st5" d="M405.5,443.9c0,0-10.2,28.1-4.1,56.9C401.4,500.8,406.4,471.5,405.5,443.9z"/>
		<path class="st5" d="M395,685c0,0-33.3,39.6-43.4,34.4c-10.1-5.2-4-26.2,10.8-70.8c14.8-44.5,22.8-177.4,23.5-202.9
			s0.1-90.9,5.8-77.3c5.6,13.6,6.5,125.7,3.4,157.2s-24,143.6-20.3,151.7C378.4,685.3,395,685,395,685z"/>
		<g>
			<circle class="st11" cx="1073" cy="567.9" r="10.4"/>
			<circle class="st9" cx="1073" cy="562.8" r="3"/>
		</g>
		<g>
			<circle class="st11" cx="994" cy="540.2" r="10.4"/>
			<circle class="st9" cx="994" cy="535" r="3"/>
		</g>
		<g>
			<path class="st13" d="M421.9,443.9c0,0,12.4-82.9,106.4-100c0,0,0,32.2-22.4,63.9C483.6,439.6,421.9,443.9,421.9,443.9z"/>
			<path class="st14" d="M511.3,359.1c0,0-92.2,83.8-92.6,88.2c-0.4,4.4-0.4,4.4-0.4,4.4L511.3,359.1z"/>
		</g>
		<g>
			<path class="st13" d="M236.4,246.8c0,0-21.3,47.5-79.5,42.2c0,0,5.4-19.3,24-34.5C199.4,239.2,236.4,246.8,236.4,246.8z"/>
			<path class="st14" d="M169.5,282.8c0,0,68.4-34.9,69.4-37.4c1-2.6,1-2.6,1-2.6L169.5,282.8z"/>
		</g>
		<g>
			<path class="st13" d="M1154.6,264c0,0-21.3,47.5-79.5,42.2c0,0,5.4-19.3,24-34.5C1117.6,256.3,1154.6,264,1154.6,264z"/>
			<path class="st14" d="M1087.6,299.9c0,0,68.4-34.9,69.4-37.4c1-2.6,1-2.6,1-2.6L1087.6,299.9z"/>
		</g>
		<g>
			<path class="st13" d="M500.1,1120.4c0,0-50.4-13.2-54.6-71.5c0,0,19.9,2.2,38,18C501.6,1082.7,500.1,1120.4,500.1,1120.4z"/>
			<path class="st14" d="M453.7,1060.3c0,0,45.6,61.8,48.3,62.3c2.7,0.6,2.7,0.6,2.7,0.6L453.7,1060.3z"/>
		</g>
		<g>
			<path class="st13" d="M630.4,309c0,0-37.8-9.9-41-53.7c0,0,14.9,1.7,28.5,13.5C631.5,280.7,630.4,309,630.4,309z"/>
			<path class="st14" d="M595.5,263.9c0,0,34.3,46.4,36.3,46.8s2,0.4,2,0.4L595.5,263.9z"/>
		</g>
		<g>
			<path class="st13" d="M1063.9,991c0,0,39.1-0.9,54.2,40.3c0,0-14.8,2.5-31.2-5.1C1070.7,1018.6,1063.9,991,1063.9,991z"/>
			<path class="st14" d="M1109.9,1024.8c0,0-45.7-35.2-47.8-35c-2.1,0.1-2.1,0.1-2.1,0.1L1109.9,1024.8z"/>
		</g>
		<g>
			<path class="st13" d="M194.2,604.1c0,0,39.1-0.9,54.2,40.3c0,0-14.8,2.5-31.2-5.1C200.9,631.7,194.2,604.1,194.2,604.1z"/>
			<path class="st14" d="M240.1,638c0,0-45.7-35.2-47.8-35c-2.1,0.1-2.1,0.1-2.1,0.1L240.1,638z"/>
		</g>
		<g>
			<path class="st13" d="M1156.8,456.7c0,0-15-36.1,18-65.1c0,0,7.7,12.9,6.5,30.9S1156.8,456.7,1156.8,456.7z"/>
			<path class="st14" d="M1171.7,401.7c0,0-16.3,55.3-15.4,57.2c0.9,1.9,0.9,1.9,0.9,1.9L1171.7,401.7z"/>
		</g>
		<g>
			<path class="st13" d="M725.8,1239.8c0,0-37.8-9.9-41-53.7c0,0,14.9,1.7,28.5,13.5C727,1211.5,725.8,1239.8,725.8,1239.8z"/>
			<path class="st14" d="M691,1194.7c0,0,34.3,46.4,36.3,46.8s2,0.4,2,0.4L691,1194.7z"/>
		</g>
		<g>
			<path class="st13" d="M1280.9,747.6c0,0-50.4-13.2-54.6-71.5c0,0,19.9,2.2,38,18C1282.4,709.8,1280.9,747.6,1280.9,747.6z"/>
			<path class="st14" d="M1234.5,687.4c0,0,45.6,61.8,48.3,62.3c2.7,0.6,2.7,0.6,2.7,0.6L1234.5,687.4z"/>
		</g>
		<g>
			<path class="st13" d="M939.2,1041c0,0-21.3,47.5-79.5,42.2c0,0,5.4-19.3,24-34.5C902.2,1033.4,939.2,1041,939.2,1041z"/>
			<path class="st14" d="M872.3,1076.9c0,0,68.4-34.9,69.4-37.4c1-2.6,1-2.6,1-2.6L872.3,1076.9z"/>
		</g>
		<g>
			<path class="st13" d="M360,559.9c0,0-83-11.5-101.1-105.2c0,0,32.2-0.4,64.2,21.7S360,559.9,360,559.9z"/>
			<path class="st14" d="M274.2,471.5c0,0,84.9,91.2,89.3,91.6s4.4,0.4,4.4,0.4L274.2,471.5z"/>
		</g>
	</g>
</g>
<g id="text">
</g>
</svg>
